<?xml version="1.0" encoding="UTF-8" standalone="no"?>
<!DOCTYPE svg PUBLIC "-//W3C//DTD SVG 1.1//EN"
 "http://www.w3.org/Graphics/SVG/1.1/DTD/svg11.dtd">
<!-- Generated by graphviz version 2.50.0 (0)
 -->
<!-- Title: snakemake_dag Pages: 1 -->
<svg width="1152pt" height="985pt"
 viewBox="0.00 0.00 1152.00 985.00" xmlns="http://www.w3.org/2000/svg" xmlns:xlink="http://www.w3.org/1999/xlink">
<g id="graph0" class="graph" transform="scale(1 1) rotate(0) translate(4 981)">
<title>snakemake_dag</title>
<polygon fill="white" stroke="transparent" points="-4,4 -4,-981 1148,-981 1148,4 -4,4"/>
<!-- 0 -->
<g id="node1" class="node">
<title>0</title>
<path fill="none" stroke="#bed856" stroke-width="2" d="M626,-36C626,-36 596,-36 596,-36 590,-36 584,-30 584,-24 584,-24 584,-12 584,-12 584,-6 590,0 596,0 596,0 626,0 626,0 632,0 638,-6 638,-12 638,-12 638,-24 638,-24 638,-30 632,-36 626,-36"/>
<text text-anchor="middle" x="611" y="-15.5" font-family="sans" font-size="10.00">all</text>
</g>
<!-- 1 -->
<g id="node2" class="node">
<title>1</title>
<path fill="none" stroke="#d89556" stroke-width="2" stroke-dasharray="5,2" d="M221.5,-252C221.5,-252 156.5,-252 156.5,-252 150.5,-252 144.5,-246 144.5,-240 144.5,-240 144.5,-228 144.5,-228 144.5,-222 150.5,-216 156.5,-216 156.5,-216 221.5,-216 221.5,-216 227.5,-216 233.5,-222 233.5,-228 233.5,-228 233.5,-240 233.5,-240 233.5,-246 227.5,-252 221.5,-252"/>
<text text-anchor="middle" x="189" y="-231.5" font-family="sans" font-size="10.00">lineage_typing</text>
</g>
<!-- 1&#45;&gt;0 -->
<g id="edge1" class="edge">
<title>1&#45;&gt;0</title>
<path fill="none" stroke="grey" stroke-width="2" d="M191.6,-215.82C197.65,-182.22 216.01,-107.97 264,-72 312.42,-35.71 494.52,-23.83 573.77,-20.33"/>
<polygon fill="grey" stroke="grey" stroke-width="2" points="573.96,-23.82 583.8,-19.9 573.66,-16.83 573.96,-23.82"/>
</g>
<!-- 2 -->
<g id="node3" class="node">
<title>2</title>
<path fill="none" stroke="#56d0d8" stroke-width="2" stroke-dasharray="5,2" d="M252,-324C252,-324 126,-324 126,-324 120,-324 114,-318 114,-312 114,-312 114,-300 114,-300 114,-294 120,-288 126,-288 126,-288 252,-288 252,-288 258,-288 264,-294 264,-300 264,-300 264,-312 264,-312 264,-318 258,-324 252,-324"/>
<text text-anchor="middle" x="189" y="-303.5" font-family="sans" font-size="10.00">create_lineage_helper_files</text>
</g>
<!-- 2&#45;&gt;1 -->
<g id="edge7" class="edge">
<title>2&#45;&gt;1</title>
<path fill="none" stroke="grey" stroke-width="2" d="M189,-287.7C189,-279.98 189,-270.71 189,-262.11"/>
<polygon fill="grey" stroke="grey" stroke-width="2" points="192.5,-262.1 189,-252.1 185.5,-262.1 192.5,-262.1"/>
</g>
<!-- 3 -->
<g id="node4" class="node">
<title>3</title>
<path fill="none" stroke="#56d8c1" stroke-width="2" stroke-dasharray="5,2" d="M221.5,-396C221.5,-396 156.5,-396 156.5,-396 150.5,-396 144.5,-390 144.5,-384 144.5,-384 144.5,-372 144.5,-372 144.5,-366 150.5,-360 156.5,-360 156.5,-360 221.5,-360 221.5,-360 227.5,-360 233.5,-366 233.5,-372 233.5,-372 233.5,-384 233.5,-384 233.5,-390 227.5,-396 221.5,-396"/>
<text text-anchor="middle" x="189" y="-375.5" font-family="sans" font-size="10.00">variant_calling</text>
</g>
<!-- 3&#45;&gt;1 -->
<g id="edge8" class="edge">
<title>3&#45;&gt;1</title>
<path fill="none" stroke="grey" stroke-width="2" d="M144.93,-359.98C129.45,-351.62 113.74,-339.85 105,-324 97.27,-309.99 97.27,-302.01 105,-288 112.1,-275.12 123.8,-264.94 136.24,-257.08"/>
<polygon fill="grey" stroke="grey" stroke-width="2" points="138.05,-260.08 144.93,-252.02 134.53,-254.03 138.05,-260.08"/>
</g>
<!-- 3&#45;&gt;2 -->
<g id="edge9" class="edge">
<title>3&#45;&gt;2</title>
<path fill="none" stroke="grey" stroke-width="2" d="M189,-359.7C189,-351.98 189,-342.71 189,-334.11"/>
<polygon fill="grey" stroke="grey" stroke-width="2" points="192.5,-334.1 189,-324.1 185.5,-334.1 192.5,-334.1"/>
</g>
<!-- 42 -->
<g id="node43" class="node">
<title>42</title>
<path fill="none" stroke="#d8b456" stroke-width="2" d="M408,-324C408,-324 294,-324 294,-324 288,-324 282,-318 282,-312 282,-312 282,-300 282,-300 282,-294 288,-288 294,-288 294,-288 408,-288 408,-288 414,-288 420,-294 420,-300 420,-300 420,-312 420,-312 420,-318 414,-324 408,-324"/>
<text text-anchor="middle" x="351" y="-303.5" font-family="sans" font-size="10.00">combine_codon_variants</text>
</g>
<!-- 3&#45;&gt;42 -->
<g id="edge56" class="edge">
<title>3&#45;&gt;42</title>
<path fill="none" stroke="grey" stroke-width="2" d="M228.63,-359.88C250.78,-350.31 278.56,-338.3 302.06,-328.15"/>
<polygon fill="grey" stroke="grey" stroke-width="2" points="303.71,-331.25 311.5,-324.07 300.93,-324.82 303.71,-331.25"/>
</g>
<!-- 4 -->
<g id="node5" class="node">
<title>4</title>
<path fill="none" stroke="#68d856" stroke-width="2" stroke-dasharray="5,2" d="M217.5,-468C217.5,-468 160.5,-468 160.5,-468 154.5,-468 148.5,-462 148.5,-456 148.5,-456 148.5,-444 148.5,-444 148.5,-438 154.5,-432 160.5,-432 160.5,-432 217.5,-432 217.5,-432 223.5,-432 229.5,-438 229.5,-444 229.5,-444 229.5,-456 229.5,-456 229.5,-462 223.5,-468 217.5,-468"/>
<text text-anchor="middle" x="189" y="-447.5" font-family="sans" font-size="10.00">merge_BAMs</text>
</g>
<!-- 4&#45;&gt;3 -->
<g id="edge10" class="edge">
<title>4&#45;&gt;3</title>
<path fill="none" stroke="grey" stroke-width="2" d="M189,-431.7C189,-423.98 189,-414.71 189,-406.11"/>
<polygon fill="grey" stroke="grey" stroke-width="2" points="192.5,-406.1 189,-396.1 185.5,-406.1 192.5,-406.1"/>
</g>
<!-- 5 -->
<g id="node6" class="node">
<title>5</title>
<path fill="none" stroke="#d87556" stroke-width="2" stroke-dasharray="5,2" d="M269,-540C269,-540 109,-540 109,-540 103,-540 97,-534 97,-528 97,-528 97,-516 97,-516 97,-510 103,-504 109,-504 109,-504 269,-504 269,-504 275,-504 281,-510 281,-516 281,-516 281,-528 281,-528 281,-534 275,-540 269,-540"/>
<text text-anchor="middle" x="189" y="-519.5" font-family="sans" font-size="10.00">get_BAMs_passing_QC_thresholds</text>
</g>
<!-- 5&#45;&gt;4 -->
<g id="edge11" class="edge">
<title>5&#45;&gt;4</title>
<path fill="none" stroke="grey" stroke-width="2" d="M189,-503.7C189,-495.98 189,-486.71 189,-478.11"/>
<polygon fill="grey" stroke="grey" stroke-width="2" points="192.5,-478.1 189,-468.1 185.5,-478.1 192.5,-478.1"/>
</g>
<!-- 6 -->
<g id="node7" class="node">
<title>6</title>
<path fill="none" stroke="#88d856" stroke-width="2" stroke-dasharray="5,2" d="M236.5,-612C236.5,-612 141.5,-612 141.5,-612 135.5,-612 129.5,-606 129.5,-600 129.5,-600 129.5,-588 129.5,-588 129.5,-582 135.5,-576 141.5,-576 141.5,-576 236.5,-576 236.5,-576 242.5,-576 248.5,-582 248.5,-588 248.5,-588 248.5,-600 248.5,-600 248.5,-606 242.5,-612 236.5,-612"/>
<text text-anchor="middle" x="189" y="-591.5" font-family="sans" font-size="10.00">get_BAM_file_depths</text>
</g>
<!-- 6&#45;&gt;5 -->
<g id="edge12" class="edge">
<title>6&#45;&gt;5</title>
<path fill="none" stroke="grey" stroke-width="2" d="M189,-575.7C189,-567.98 189,-558.71 189,-550.11"/>
<polygon fill="grey" stroke="grey" stroke-width="2" points="192.5,-550.1 189,-540.1 185.5,-550.1 192.5,-550.1"/>
</g>
<!-- 7 -->
<g id="node8" class="node">
<title>7</title>
<path fill="none" stroke="#d85656" stroke-width="2" stroke-dasharray="5,2" d="M168.5,-684C168.5,-684 33.5,-684 33.5,-684 27.5,-684 21.5,-678 21.5,-672 21.5,-672 21.5,-660 21.5,-660 21.5,-654 27.5,-648 33.5,-648 33.5,-648 168.5,-648 168.5,-648 174.5,-648 180.5,-654 180.5,-660 180.5,-660 180.5,-672 180.5,-672 180.5,-678 174.5,-684 168.5,-684"/>
<text text-anchor="middle" x="101" y="-663.5" font-family="sans" font-size="10.00">align_reads_mark_duplicates</text>
</g>
<!-- 7&#45;&gt;5 -->
<g id="edge13" class="edge">
<title>7&#45;&gt;5</title>
<path fill="none" stroke="grey" stroke-width="2" d="M101.2,-647.96C102.17,-629.02 106,-598.18 120,-576 127.39,-564.29 138.33,-554.18 149.33,-546.01"/>
<polygon fill="grey" stroke="grey" stroke-width="2" points="151.52,-548.76 157.7,-540.15 147.5,-543.02 151.52,-548.76"/>
</g>
<!-- 7&#45;&gt;6 -->
<g id="edge15" class="edge">
<title>7&#45;&gt;6</title>
<path fill="none" stroke="grey" stroke-width="2" d="M122.75,-647.7C133.84,-638.88 147.47,-628.03 159.49,-618.47"/>
<polygon fill="grey" stroke="grey" stroke-width="2" points="161.85,-621.07 167.5,-612.1 157.49,-615.59 161.85,-621.07"/>
</g>
<!-- 8 -->
<g id="node9" class="node">
<title>8</title>
<path fill="none" stroke="#56d8a2" stroke-width="2" stroke-dasharray="5,2" d="M165.5,-756C165.5,-756 106.5,-756 106.5,-756 100.5,-756 94.5,-750 94.5,-744 94.5,-744 94.5,-732 94.5,-732 94.5,-726 100.5,-720 106.5,-720 106.5,-720 165.5,-720 165.5,-720 171.5,-720 177.5,-726 177.5,-732 177.5,-732 177.5,-744 177.5,-744 177.5,-750 171.5,-756 165.5,-756"/>
<text text-anchor="middle" x="136" y="-735.5" font-family="sans" font-size="10.00">fastlin_typing</text>
</g>
<!-- 8&#45;&gt;7 -->
<g id="edge17" class="edge">
<title>8&#45;&gt;7</title>
<path fill="none" stroke="grey" stroke-width="2" d="M127.35,-719.7C123.36,-711.73 118.55,-702.1 114.13,-693.26"/>
<polygon fill="grey" stroke="grey" stroke-width="2" points="117.15,-691.48 109.55,-684.1 110.89,-694.61 117.15,-691.48"/>
</g>
<!-- 9 -->
<g id="node10" class="node">
<title>9</title>
<path fill="none" stroke="#56d882" stroke-width="2" stroke-dasharray="5,2" d="M123.5,-828C123.5,-828 28.5,-828 28.5,-828 22.5,-828 16.5,-822 16.5,-816 16.5,-816 16.5,-804 16.5,-804 16.5,-798 22.5,-792 28.5,-792 28.5,-792 123.5,-792 123.5,-792 129.5,-792 135.5,-798 135.5,-804 135.5,-804 135.5,-816 135.5,-816 135.5,-822 129.5,-828 123.5,-828"/>
<text text-anchor="middle" x="76" y="-807.5" font-family="sans" font-size="10.00">kraken_classification</text>
</g>
<!-- 9&#45;&gt;7 -->
<g id="edge18" class="edge">
<title>9&#45;&gt;7</title>
<path fill="none" stroke="grey" stroke-width="2" d="M76.76,-791.79C77.78,-773.76 80.08,-744.67 85,-720 86.71,-711.42 89.23,-702.25 91.76,-693.98"/>
<polygon fill="grey" stroke="grey" stroke-width="2" points="95.1,-695.04 94.81,-684.45 88.43,-692.91 95.1,-695.04"/>
</g>
<!-- 9&#45;&gt;8 -->
<g id="edge19" class="edge">
<title>9&#45;&gt;8</title>
<path fill="none" stroke="grey" stroke-width="2" d="M90.83,-791.7C98.02,-783.3 106.8,-773.07 114.69,-763.86"/>
<polygon fill="grey" stroke="grey" stroke-width="2" points="117.49,-765.97 121.34,-756.1 112.17,-761.42 117.49,-765.97"/>
</g>
<!-- 10 -->
<g id="node11" class="node">
<title>10</title>
<path fill="none" stroke="#5673d8" stroke-width="2" stroke-dasharray="5,2" d="M106.5,-900C106.5,-900 45.5,-900 45.5,-900 39.5,-900 33.5,-894 33.5,-888 33.5,-888 33.5,-876 33.5,-876 33.5,-870 39.5,-864 45.5,-864 45.5,-864 106.5,-864 106.5,-864 112.5,-864 118.5,-870 118.5,-876 118.5,-876 118.5,-888 118.5,-888 118.5,-894 112.5,-900 106.5,-900"/>
<text text-anchor="middle" x="76" y="-879.5" font-family="sans" font-size="10.00">trim_adapters</text>
</g>
<!-- 10&#45;&gt;9 -->
<g id="edge20" class="edge">
<title>10&#45;&gt;9</title>
<path fill="none" stroke="grey" stroke-width="2" d="M76,-863.7C76,-855.98 76,-846.71 76,-838.11"/>
<polygon fill="grey" stroke="grey" stroke-width="2" points="79.5,-838.1 76,-828.1 72.5,-838.1 79.5,-838.1"/>
</g>
<!-- 11 -->
<g id="node12" class="node">
<title>11</title>
<path fill="none" stroke="#9fd856" stroke-width="2" stroke-dasharray="5,2" d="M140,-977C140,-977 12,-977 12,-977 6,-977 0,-971 0,-965 0,-965 0,-948 0,-948 0,-942 6,-936 12,-936 12,-936 140,-936 140,-936 146,-936 152,-942 152,-948 152,-948 152,-965 152,-965 152,-971 146,-977 140,-977"/>
<text text-anchor="middle" x="76" y="-965" font-family="sans" font-size="10.00">get_input_FASTQ_files</text>
<text text-anchor="middle" x="76" y="-954" font-family="sans" font-size="10.00">run_ID: ERR8665793</text>
<text text-anchor="middle" x="76" y="-943" font-family="sans" font-size="10.00">sample_ID: SAMEA8741574</text>
</g>
<!-- 11&#45;&gt;10 -->
<g id="edge21" class="edge">
<title>11&#45;&gt;10</title>
<path fill="none" stroke="grey" stroke-width="2" d="M76,-935.69C76,-927.91 76,-918.84 76,-910.45"/>
<polygon fill="grey" stroke="grey" stroke-width="2" points="79.5,-910.32 76,-900.32 72.5,-910.32 79.5,-910.32"/>
</g>
<!-- 12 -->
<g id="node13" class="node">
<title>12</title>
<path fill="none" stroke="#d85656" stroke-width="2" stroke-dasharray="5,2" d="M345.5,-684C345.5,-684 210.5,-684 210.5,-684 204.5,-684 198.5,-678 198.5,-672 198.5,-672 198.5,-660 198.5,-660 198.5,-654 204.5,-648 210.5,-648 210.5,-648 345.5,-648 345.5,-648 351.5,-648 357.5,-654 357.5,-660 357.5,-660 357.5,-672 357.5,-672 357.5,-678 351.5,-684 345.5,-684"/>
<text text-anchor="middle" x="278" y="-663.5" font-family="sans" font-size="10.00">align_reads_mark_duplicates</text>
</g>
<!-- 12&#45;&gt;5 -->
<g id="edge14" class="edge">
<title>12&#45;&gt;5</title>
<path fill="none" stroke="grey" stroke-width="2" d="M277.31,-647.96C275.83,-629.02 271.23,-598.18 257,-576 249.53,-564.35 238.59,-554.21 227.66,-546"/>
<polygon fill="grey" stroke="grey" stroke-width="2" points="229.54,-543.04 219.36,-540.1 225.48,-548.75 229.54,-543.04"/>
</g>
<!-- 12&#45;&gt;6 -->
<g id="edge16" class="edge">
<title>12&#45;&gt;6</title>
<path fill="none" stroke="grey" stroke-width="2" d="M256,-647.7C244.79,-638.88 231,-628.03 218.85,-618.47"/>
<polygon fill="grey" stroke="grey" stroke-width="2" points="220.77,-615.54 210.75,-612.1 216.44,-621.04 220.77,-615.54"/>
</g>
<!-- 13 -->
<g id="node14" class="node">
<title>13</title>
<path fill="none" stroke="#56d8a2" stroke-width="2" stroke-dasharray="5,2" d="M356.5,-756C356.5,-756 297.5,-756 297.5,-756 291.5,-756 285.5,-750 285.5,-744 285.5,-744 285.5,-732 285.5,-732 285.5,-726 291.5,-720 297.5,-720 297.5,-720 356.5,-720 356.5,-720 362.5,-720 368.5,-726 368.5,-732 368.5,-732 368.5,-744 368.5,-744 368.5,-750 362.5,-756 356.5,-756"/>
<text text-anchor="middle" x="327" y="-735.5" font-family="sans" font-size="10.00">fastlin_typing</text>
</g>
<!-- 13&#45;&gt;12 -->
<g id="edge22" class="edge">
<title>13&#45;&gt;12</title>
<path fill="none" stroke="grey" stroke-width="2" d="M314.89,-719.7C309.13,-711.47 302.14,-701.48 295.79,-692.42"/>
<polygon fill="grey" stroke="grey" stroke-width="2" points="298.58,-690.29 289.97,-684.1 292.84,-694.3 298.58,-690.29"/>
</g>
<!-- 14 -->
<g id="node15" class="node">
<title>14</title>
<path fill="none" stroke="#56d882" stroke-width="2" stroke-dasharray="5,2" d="M339.5,-828C339.5,-828 244.5,-828 244.5,-828 238.5,-828 232.5,-822 232.5,-816 232.5,-816 232.5,-804 232.5,-804 232.5,-798 238.5,-792 244.5,-792 244.5,-792 339.5,-792 339.5,-792 345.5,-792 351.5,-798 351.5,-804 351.5,-804 351.5,-816 351.5,-816 351.5,-822 345.5,-828 339.5,-828"/>
<text text-anchor="middle" x="292" y="-807.5" font-family="sans" font-size="10.00">kraken_classification</text>
</g>
<!-- 14&#45;&gt;12 -->
<g id="edge23" class="edge">
<title>14&#45;&gt;12</title>
<path fill="none" stroke="grey" stroke-width="2" d="M285.35,-791.63C281.8,-781.42 277.8,-768.17 276,-756 272.97,-735.49 273.67,-712.03 275.01,-694.35"/>
<polygon fill="grey" stroke="grey" stroke-width="2" points="278.52,-694.44 275.91,-684.17 271.55,-693.82 278.52,-694.44"/>
</g>
<!-- 14&#45;&gt;13 -->
<g id="edge24" class="edge">
<title>14&#45;&gt;13</title>
<path fill="none" stroke="grey" stroke-width="2" d="M300.65,-791.7C304.64,-783.73 309.45,-774.1 313.87,-765.26"/>
<polygon fill="grey" stroke="grey" stroke-width="2" points="317.11,-766.61 318.45,-756.1 310.85,-763.48 317.11,-766.61"/>
</g>
<!-- 15 -->
<g id="node16" class="node">
<title>15</title>
<path fill="none" stroke="#5673d8" stroke-width="2" stroke-dasharray="5,2" d="M322.5,-900C322.5,-900 261.5,-900 261.5,-900 255.5,-900 249.5,-894 249.5,-888 249.5,-888 249.5,-876 249.5,-876 249.5,-870 255.5,-864 261.5,-864 261.5,-864 322.5,-864 322.5,-864 328.5,-864 334.5,-870 334.5,-876 334.5,-876 334.5,-888 334.5,-888 334.5,-894 328.5,-900 322.5,-900"/>
<text text-anchor="middle" x="292" y="-879.5" font-family="sans" font-size="10.00">trim_adapters</text>
</g>
<!-- 15&#45;&gt;14 -->
<g id="edge25" class="edge">
<title>15&#45;&gt;14</title>
<path fill="none" stroke="grey" stroke-width="2" d="M292,-863.7C292,-855.98 292,-846.71 292,-838.11"/>
<polygon fill="grey" stroke="grey" stroke-width="2" points="295.5,-838.1 292,-828.1 288.5,-838.1 295.5,-838.1"/>
</g>
<!-- 16 -->
<g id="node17" class="node">
<title>16</title>
<path fill="none" stroke="#9fd856" stroke-width="2" stroke-dasharray="5,2" d="M356,-977C356,-977 228,-977 228,-977 222,-977 216,-971 216,-965 216,-965 216,-948 216,-948 216,-942 222,-936 228,-936 228,-936 356,-936 356,-936 362,-936 368,-942 368,-948 368,-948 368,-965 368,-965 368,-971 362,-977 356,-977"/>
<text text-anchor="middle" x="292" y="-965" font-family="sans" font-size="10.00">get_input_FASTQ_files</text>
<text text-anchor="middle" x="292" y="-954" font-family="sans" font-size="10.00">run_ID: ERR8665794</text>
<text text-anchor="middle" x="292" y="-943" font-family="sans" font-size="10.00">sample_ID: SAMEA8741574</text>
</g>
<!-- 16&#45;&gt;15 -->
<g id="edge26" class="edge">
<title>16&#45;&gt;15</title>
<path fill="none" stroke="grey" stroke-width="2" d="M292,-935.69C292,-927.91 292,-918.84 292,-910.45"/>
<polygon fill="grey" stroke="grey" stroke-width="2" points="295.5,-910.32 292,-900.32 288.5,-910.32 295.5,-910.32"/>
</g>
<!-- 17 -->
<g id="node18" class="node">
<title>17</title>
<path fill="none" stroke="#d89556" stroke-width="2" stroke-dasharray="5,2" d="M575.5,-252C575.5,-252 510.5,-252 510.5,-252 504.5,-252 498.5,-246 498.5,-240 498.5,-240 498.5,-228 498.5,-228 498.5,-222 504.5,-216 510.5,-216 510.5,-216 575.5,-216 575.5,-216 581.5,-216 587.5,-222 587.5,-228 587.5,-228 587.5,-240 587.5,-240 587.5,-246 581.5,-252 575.5,-252"/>
<text text-anchor="middle" x="543" y="-231.5" font-family="sans" font-size="10.00">lineage_typing</text>
</g>
<!-- 17&#45;&gt;0 -->
<g id="edge2" class="edge">
<title>17&#45;&gt;0</title>
<path fill="none" stroke="grey" stroke-width="2" d="M541.65,-215.62C539.99,-185.04 539.74,-120.31 562,-72 566.86,-61.46 574.62,-51.6 582.54,-43.32"/>
<polygon fill="grey" stroke="grey" stroke-width="2" points="585.12,-45.69 589.79,-36.18 580.21,-40.71 585.12,-45.69"/>
</g>
<!-- 18 -->
<g id="node19" class="node">
<title>18</title>
<path fill="none" stroke="#56d0d8" stroke-width="2" stroke-dasharray="5,2" d="M614,-324C614,-324 488,-324 488,-324 482,-324 476,-318 476,-312 476,-312 476,-300 476,-300 476,-294 482,-288 488,-288 488,-288 614,-288 614,-288 620,-288 626,-294 626,-300 626,-300 626,-312 626,-312 626,-318 620,-324 614,-324"/>
<text text-anchor="middle" x="551" y="-303.5" font-family="sans" font-size="10.00">create_lineage_helper_files</text>
</g>
<!-- 18&#45;&gt;17 -->
<g id="edge27" class="edge">
<title>18&#45;&gt;17</title>
<path fill="none" stroke="grey" stroke-width="2" d="M549.02,-287.7C548.14,-279.98 547.08,-270.71 546.1,-262.11"/>
<polygon fill="grey" stroke="grey" stroke-width="2" points="549.57,-261.64 544.95,-252.1 542.61,-262.44 549.57,-261.64"/>
</g>
<!-- 19 -->
<g id="node20" class="node">
<title>19</title>
<path fill="none" stroke="#56d8c1" stroke-width="2" stroke-dasharray="5,2" d="M583.5,-396C583.5,-396 518.5,-396 518.5,-396 512.5,-396 506.5,-390 506.5,-384 506.5,-384 506.5,-372 506.5,-372 506.5,-366 512.5,-360 518.5,-360 518.5,-360 583.5,-360 583.5,-360 589.5,-360 595.5,-366 595.5,-372 595.5,-372 595.5,-384 595.5,-384 595.5,-390 589.5,-396 583.5,-396"/>
<text text-anchor="middle" x="551" y="-375.5" font-family="sans" font-size="10.00">variant_calling</text>
</g>
<!-- 19&#45;&gt;17 -->
<g id="edge28" class="edge">
<title>19&#45;&gt;17</title>
<path fill="none" stroke="grey" stroke-width="2" d="M506.93,-359.98C491.45,-351.62 475.74,-339.85 467,-324 459.27,-309.99 459.6,-302.19 467,-288 473.47,-275.61 484.3,-265.52 495.79,-257.6"/>
<polygon fill="grey" stroke="grey" stroke-width="2" points="497.68,-260.55 504.22,-252.22 493.91,-254.65 497.68,-260.55"/>
</g>
<!-- 19&#45;&gt;18 -->
<g id="edge29" class="edge">
<title>19&#45;&gt;18</title>
<path fill="none" stroke="grey" stroke-width="2" d="M551,-359.7C551,-351.98 551,-342.71 551,-334.11"/>
<polygon fill="grey" stroke="grey" stroke-width="2" points="554.5,-334.1 551,-324.1 547.5,-334.1 554.5,-334.1"/>
</g>
<!-- 46 -->
<g id="node47" class="node">
<title>46</title>
<path fill="none" stroke="#d8b456" stroke-width="2" d="M770,-324C770,-324 656,-324 656,-324 650,-324 644,-318 644,-312 644,-312 644,-300 644,-300 644,-294 650,-288 656,-288 656,-288 770,-288 770,-288 776,-288 782,-294 782,-300 782,-300 782,-312 782,-312 782,-318 776,-324 770,-324"/>
<text text-anchor="middle" x="713" y="-303.5" font-family="sans" font-size="10.00">combine_codon_variants</text>
</g>
<!-- 19&#45;&gt;46 -->
<g id="edge60" class="edge">
<title>19&#45;&gt;46</title>
<path fill="none" stroke="grey" stroke-width="2" d="M590.63,-359.88C612.78,-350.31 640.56,-338.3 664.06,-328.15"/>
<polygon fill="grey" stroke="grey" stroke-width="2" points="665.71,-331.25 673.5,-324.07 662.93,-324.82 665.71,-331.25"/>
</g>
<!-- 20 -->
<g id="node21" class="node">
<title>20</title>
<path fill="none" stroke="#68d856" stroke-width="2" stroke-dasharray="5,2" d="M579.5,-468C579.5,-468 522.5,-468 522.5,-468 516.5,-468 510.5,-462 510.5,-456 510.5,-456 510.5,-444 510.5,-444 510.5,-438 516.5,-432 522.5,-432 522.5,-432 579.5,-432 579.5,-432 585.5,-432 591.5,-438 591.5,-444 591.5,-444 591.5,-456 591.5,-456 591.5,-462 585.5,-468 579.5,-468"/>
<text text-anchor="middle" x="551" y="-447.5" font-family="sans" font-size="10.00">merge_BAMs</text>
</g>
<!-- 20&#45;&gt;19 -->
<g id="edge30" class="edge">
<title>20&#45;&gt;19</title>
<path fill="none" stroke="grey" stroke-width="2" d="M551,-431.7C551,-423.98 551,-414.71 551,-406.11"/>
<polygon fill="grey" stroke="grey" stroke-width="2" points="554.5,-406.1 551,-396.1 547.5,-406.1 554.5,-406.1"/>
</g>
<!-- 21 -->
<g id="node22" class="node">
<title>21</title>
<path fill="none" stroke="#d87556" stroke-width="2" stroke-dasharray="5,2" d="M631,-540C631,-540 471,-540 471,-540 465,-540 459,-534 459,-528 459,-528 459,-516 459,-516 459,-510 465,-504 471,-504 471,-504 631,-504 631,-504 637,-504 643,-510 643,-516 643,-516 643,-528 643,-528 643,-534 637,-540 631,-540"/>
<text text-anchor="middle" x="551" y="-519.5" font-family="sans" font-size="10.00">get_BAMs_passing_QC_thresholds</text>
</g>
<!-- 21&#45;&gt;20 -->
<g id="edge31" class="edge">
<title>21&#45;&gt;20</title>
<path fill="none" stroke="grey" stroke-width="2" d="M551,-503.7C551,-495.98 551,-486.71 551,-478.11"/>
<polygon fill="grey" stroke="grey" stroke-width="2" points="554.5,-478.1 551,-468.1 547.5,-478.1 554.5,-478.1"/>
</g>
<!-- 22 -->
<g id="node23" class="node">
<title>22</title>
<path fill="none" stroke="#88d856" stroke-width="2" stroke-dasharray="5,2" d="M642.5,-612C642.5,-612 547.5,-612 547.5,-612 541.5,-612 535.5,-606 535.5,-600 535.5,-600 535.5,-588 535.5,-588 535.5,-582 541.5,-576 547.5,-576 547.5,-576 642.5,-576 642.5,-576 648.5,-576 654.5,-582 654.5,-588 654.5,-588 654.5,-600 654.5,-600 654.5,-606 648.5,-612 642.5,-612"/>
<text text-anchor="middle" x="595" y="-591.5" font-family="sans" font-size="10.00">get_BAM_file_depths</text>
</g>
<!-- 22&#45;&gt;21 -->
<g id="edge32" class="edge">
<title>22&#45;&gt;21</title>
<path fill="none" stroke="grey" stroke-width="2" d="M584.12,-575.7C579.01,-567.56 572.8,-557.69 567.16,-548.7"/>
<polygon fill="grey" stroke="grey" stroke-width="2" points="570.04,-546.71 561.75,-540.1 564.11,-550.43 570.04,-546.71"/>
</g>
<!-- 23 -->
<g id="node24" class="node">
<title>23</title>
<path fill="none" stroke="#d85656" stroke-width="2" stroke-dasharray="5,2" d="M618.5,-684C618.5,-684 483.5,-684 483.5,-684 477.5,-684 471.5,-678 471.5,-672 471.5,-672 471.5,-660 471.5,-660 471.5,-654 477.5,-648 483.5,-648 483.5,-648 618.5,-648 618.5,-648 624.5,-648 630.5,-654 630.5,-660 630.5,-660 630.5,-672 630.5,-672 630.5,-678 624.5,-684 618.5,-684"/>
<text text-anchor="middle" x="551" y="-663.5" font-family="sans" font-size="10.00">align_reads_mark_duplicates</text>
</g>
<!-- 23&#45;&gt;21 -->
<g id="edge33" class="edge">
<title>23&#45;&gt;21</title>
<path fill="none" stroke="grey" stroke-width="2" d="M540.37,-647.56C534.9,-637.54 528.8,-624.51 526,-612 522.5,-596.39 522.5,-591.61 526,-576 528.01,-567.01 531.73,-557.75 535.7,-549.53"/>
<polygon fill="grey" stroke="grey" stroke-width="2" points="538.91,-550.94 540.37,-540.44 532.68,-547.73 538.91,-550.94"/>
</g>
<!-- 23&#45;&gt;22 -->
<g id="edge34" class="edge">
<title>23&#45;&gt;22</title>
<path fill="none" stroke="grey" stroke-width="2" d="M561.88,-647.7C566.99,-639.56 573.2,-629.69 578.84,-620.7"/>
<polygon fill="grey" stroke="grey" stroke-width="2" points="581.89,-622.43 584.25,-612.1 575.96,-618.71 581.89,-622.43"/>
</g>
<!-- 24 -->
<g id="node25" class="node">
<title>24</title>
<path fill="none" stroke="#56d8a2" stroke-width="2" stroke-dasharray="5,2" d="M615.5,-756C615.5,-756 556.5,-756 556.5,-756 550.5,-756 544.5,-750 544.5,-744 544.5,-744 544.5,-732 544.5,-732 544.5,-726 550.5,-720 556.5,-720 556.5,-720 615.5,-720 615.5,-720 621.5,-720 627.5,-726 627.5,-732 627.5,-732 627.5,-744 627.5,-744 627.5,-750 621.5,-756 615.5,-756"/>
<text text-anchor="middle" x="586" y="-735.5" font-family="sans" font-size="10.00">fastlin_typing</text>
</g>
<!-- 24&#45;&gt;23 -->
<g id="edge35" class="edge">
<title>24&#45;&gt;23</title>
<path fill="none" stroke="grey" stroke-width="2" d="M577.35,-719.7C573.36,-711.73 568.55,-702.1 564.13,-693.26"/>
<polygon fill="grey" stroke="grey" stroke-width="2" points="567.15,-691.48 559.55,-684.1 560.89,-694.61 567.15,-691.48"/>
</g>
<!-- 25 -->
<g id="node26" class="node">
<title>25</title>
<path fill="none" stroke="#56d882" stroke-width="2" stroke-dasharray="5,2" d="M598.5,-828C598.5,-828 503.5,-828 503.5,-828 497.5,-828 491.5,-822 491.5,-816 491.5,-816 491.5,-804 491.5,-804 491.5,-798 497.5,-792 503.5,-792 503.5,-792 598.5,-792 598.5,-792 604.5,-792 610.5,-798 610.5,-804 610.5,-804 610.5,-816 610.5,-816 610.5,-822 604.5,-828 598.5,-828"/>
<text text-anchor="middle" x="551" y="-807.5" font-family="sans" font-size="10.00">kraken_classification</text>
</g>
<!-- 25&#45;&gt;23 -->
<g id="edge36" class="edge">
<title>25&#45;&gt;23</title>
<path fill="none" stroke="grey" stroke-width="2" d="M544.35,-791.63C540.8,-781.42 536.8,-768.17 535,-756 532.66,-740.17 532.66,-735.83 535,-720 536.28,-711.35 538.67,-702.15 541.22,-693.89"/>
<polygon fill="grey" stroke="grey" stroke-width="2" points="544.55,-694.96 544.35,-684.37 537.9,-692.78 544.55,-694.96"/>
</g>
<!-- 25&#45;&gt;24 -->
<g id="edge37" class="edge">
<title>25&#45;&gt;24</title>
<path fill="none" stroke="grey" stroke-width="2" d="M559.65,-791.7C563.64,-783.73 568.45,-774.1 572.87,-765.26"/>
<polygon fill="grey" stroke="grey" stroke-width="2" points="576.11,-766.61 577.45,-756.1 569.85,-763.48 576.11,-766.61"/>
</g>
<!-- 26 -->
<g id="node27" class="node">
<title>26</title>
<path fill="none" stroke="#5673d8" stroke-width="2" stroke-dasharray="5,2" d="M581.5,-900C581.5,-900 520.5,-900 520.5,-900 514.5,-900 508.5,-894 508.5,-888 508.5,-888 508.5,-876 508.5,-876 508.5,-870 514.5,-864 520.5,-864 520.5,-864 581.5,-864 581.5,-864 587.5,-864 593.5,-870 593.5,-876 593.5,-876 593.5,-888 593.5,-888 593.5,-894 587.5,-900 581.5,-900"/>
<text text-anchor="middle" x="551" y="-879.5" font-family="sans" font-size="10.00">trim_adapters</text>
</g>
<!-- 26&#45;&gt;25 -->
<g id="edge38" class="edge">
<title>26&#45;&gt;25</title>
<path fill="none" stroke="grey" stroke-width="2" d="M551,-863.7C551,-855.98 551,-846.71 551,-838.11"/>
<polygon fill="grey" stroke="grey" stroke-width="2" points="554.5,-838.1 551,-828.1 547.5,-838.1 554.5,-838.1"/>
</g>
<!-- 27 -->
<g id="node28" class="node">
<title>27</title>
<path fill="none" stroke="#9fd856" stroke-width="2" stroke-dasharray="5,2" d="M601,-977C601,-977 501,-977 501,-977 495,-977 489,-971 489,-965 489,-965 489,-948 489,-948 489,-942 495,-936 501,-936 501,-936 601,-936 601,-936 607,-936 613,-942 613,-948 613,-948 613,-965 613,-965 613,-971 607,-977 601,-977"/>
<text text-anchor="middle" x="551" y="-965" font-family="sans" font-size="10.00">get_input_FASTQ_files</text>
<text text-anchor="middle" x="551" y="-954" font-family="sans" font-size="10.00">run_ID: 00&#45;R1210</text>
<text text-anchor="middle" x="551" y="-943" font-family="sans" font-size="10.00">sample_ID: 00&#45;R1210</text>
</g>
<!-- 27&#45;&gt;26 -->
<g id="edge39" class="edge">
<title>27&#45;&gt;26</title>
<path fill="none" stroke="grey" stroke-width="2" d="M551,-935.69C551,-927.91 551,-918.84 551,-910.45"/>
<polygon fill="grey" stroke="grey" stroke-width="2" points="554.5,-910.32 551,-900.32 547.5,-910.32 554.5,-910.32"/>
</g>
<!-- 28 -->
<g id="node29" class="node">
<title>28</title>
<path fill="none" stroke="#d89556" stroke-width="2" stroke-dasharray="5,2" d="M849.5,-252C849.5,-252 784.5,-252 784.5,-252 778.5,-252 772.5,-246 772.5,-240 772.5,-240 772.5,-228 772.5,-228 772.5,-222 778.5,-216 784.5,-216 784.5,-216 849.5,-216 849.5,-216 855.5,-216 861.5,-222 861.5,-228 861.5,-228 861.5,-240 861.5,-240 861.5,-246 855.5,-252 849.5,-252"/>
<text text-anchor="middle" x="817" y="-231.5" font-family="sans" font-size="10.00">lineage_typing</text>
</g>
<!-- 28&#45;&gt;0 -->
<g id="edge3" class="edge">
<title>28&#45;&gt;0</title>
<path fill="none" stroke="grey" stroke-width="2" d="M820.61,-215.55C826.22,-183.12 833.06,-113.12 798,-72 760.99,-28.59 691.31,-19.4 648.25,-18.17"/>
<polygon fill="grey" stroke="grey" stroke-width="2" points="648.23,-14.67 638.17,-18.01 648.12,-21.66 648.23,-14.67"/>
</g>
<!-- 29 -->
<g id="node30" class="node">
<title>29</title>
<path fill="none" stroke="#56d0d8" stroke-width="2" stroke-dasharray="5,2" d="M976,-324C976,-324 850,-324 850,-324 844,-324 838,-318 838,-312 838,-312 838,-300 838,-300 838,-294 844,-288 850,-288 850,-288 976,-288 976,-288 982,-288 988,-294 988,-300 988,-300 988,-312 988,-312 988,-318 982,-324 976,-324"/>
<text text-anchor="middle" x="913" y="-303.5" font-family="sans" font-size="10.00">create_lineage_helper_files</text>
</g>
<!-- 29&#45;&gt;28 -->
<g id="edge40" class="edge">
<title>29&#45;&gt;28</title>
<path fill="none" stroke="grey" stroke-width="2" d="M889.27,-287.7C877.06,-278.8 862.01,-267.82 848.82,-258.2"/>
<polygon fill="grey" stroke="grey" stroke-width="2" points="850.6,-255.17 840.46,-252.1 846.48,-260.82 850.6,-255.17"/>
</g>
<!-- 30 -->
<g id="node31" class="node">
<title>30</title>
<path fill="none" stroke="#56d8c1" stroke-width="2" stroke-dasharray="5,2" d="M945.5,-396C945.5,-396 880.5,-396 880.5,-396 874.5,-396 868.5,-390 868.5,-384 868.5,-384 868.5,-372 868.5,-372 868.5,-366 874.5,-360 880.5,-360 880.5,-360 945.5,-360 945.5,-360 951.5,-360 957.5,-366 957.5,-372 957.5,-372 957.5,-384 957.5,-384 957.5,-390 951.5,-396 945.5,-396"/>
<text text-anchor="middle" x="913" y="-375.5" font-family="sans" font-size="10.00">variant_calling</text>
</g>
<!-- 30&#45;&gt;28 -->
<g id="edge41" class="edge">
<title>30&#45;&gt;28</title>
<path fill="none" stroke="grey" stroke-width="2" d="M870.89,-359.81C855.28,-351.33 838.97,-339.52 829,-324 817.31,-305.8 814.76,-281.18 814.89,-262.45"/>
<polygon fill="grey" stroke="grey" stroke-width="2" points="818.39,-262.3 815.22,-252.19 811.4,-262.07 818.39,-262.3"/>
</g>
<!-- 30&#45;&gt;29 -->
<g id="edge42" class="edge">
<title>30&#45;&gt;29</title>
<path fill="none" stroke="grey" stroke-width="2" d="M913,-359.7C913,-351.98 913,-342.71 913,-334.11"/>
<polygon fill="grey" stroke="grey" stroke-width="2" points="916.5,-334.1 913,-324.1 909.5,-334.1 916.5,-334.1"/>
</g>
<!-- 50 -->
<g id="node51" class="node">
<title>50</title>
<path fill="none" stroke="#d8b456" stroke-width="2" d="M1132,-324C1132,-324 1018,-324 1018,-324 1012,-324 1006,-318 1006,-312 1006,-312 1006,-300 1006,-300 1006,-294 1012,-288 1018,-288 1018,-288 1132,-288 1132,-288 1138,-288 1144,-294 1144,-300 1144,-300 1144,-312 1144,-312 1144,-318 1138,-324 1132,-324"/>
<text text-anchor="middle" x="1075" y="-303.5" font-family="sans" font-size="10.00">combine_codon_variants</text>
</g>
<!-- 30&#45;&gt;50 -->
<g id="edge64" class="edge">
<title>30&#45;&gt;50</title>
<path fill="none" stroke="grey" stroke-width="2" d="M952.63,-359.88C974.78,-350.31 1002.56,-338.3 1026.06,-328.15"/>
<polygon fill="grey" stroke="grey" stroke-width="2" points="1027.71,-331.25 1035.5,-324.07 1024.93,-324.82 1027.71,-331.25"/>
</g>
<!-- 31 -->
<g id="node32" class="node">
<title>31</title>
<path fill="none" stroke="#68d856" stroke-width="2" stroke-dasharray="5,2" d="M941.5,-468C941.5,-468 884.5,-468 884.5,-468 878.5,-468 872.5,-462 872.5,-456 872.5,-456 872.5,-444 872.5,-444 872.5,-438 878.5,-432 884.5,-432 884.5,-432 941.5,-432 941.5,-432 947.5,-432 953.5,-438 953.5,-444 953.5,-444 953.5,-456 953.5,-456 953.5,-462 947.5,-468 941.5,-468"/>
<text text-anchor="middle" x="913" y="-447.5" font-family="sans" font-size="10.00">merge_BAMs</text>
</g>
<!-- 31&#45;&gt;30 -->
<g id="edge43" class="edge">
<title>31&#45;&gt;30</title>
<path fill="none" stroke="grey" stroke-width="2" d="M913,-431.7C913,-423.98 913,-414.71 913,-406.11"/>
<polygon fill="grey" stroke="grey" stroke-width="2" points="916.5,-406.1 913,-396.1 909.5,-406.1 916.5,-406.1"/>
</g>
<!-- 32 -->
<g id="node33" class="node">
<title>32</title>
<path fill="none" stroke="#d87556" stroke-width="2" stroke-dasharray="5,2" d="M993,-540C993,-540 833,-540 833,-540 827,-540 821,-534 821,-528 821,-528 821,-516 821,-516 821,-510 827,-504 833,-504 833,-504 993,-504 993,-504 999,-504 1005,-510 1005,-516 1005,-516 1005,-528 1005,-528 1005,-534 999,-540 993,-540"/>
<text text-anchor="middle" x="913" y="-519.5" font-family="sans" font-size="10.00">get_BAMs_passing_QC_thresholds</text>
</g>
<!-- 32&#45;&gt;31 -->
<g id="edge44" class="edge">
<title>32&#45;&gt;31</title>
<path fill="none" stroke="grey" stroke-width="2" d="M913,-503.7C913,-495.98 913,-486.71 913,-478.11"/>
<polygon fill="grey" stroke="grey" stroke-width="2" points="916.5,-478.1 913,-468.1 909.5,-478.1 916.5,-478.1"/>
</g>
<!-- 33 -->
<g id="node34" class="node">
<title>33</title>
<path fill="none" stroke="#88d856" stroke-width="2" stroke-dasharray="5,2" d="M1004.5,-612C1004.5,-612 909.5,-612 909.5,-612 903.5,-612 897.5,-606 897.5,-600 897.5,-600 897.5,-588 897.5,-588 897.5,-582 903.5,-576 909.5,-576 909.5,-576 1004.5,-576 1004.5,-576 1010.5,-576 1016.5,-582 1016.5,-588 1016.5,-588 1016.5,-600 1016.5,-600 1016.5,-606 1010.5,-612 1004.5,-612"/>
<text text-anchor="middle" x="957" y="-591.5" font-family="sans" font-size="10.00">get_BAM_file_depths</text>
</g>
<!-- 33&#45;&gt;32 -->
<g id="edge45" class="edge">
<title>33&#45;&gt;32</title>
<path fill="none" stroke="grey" stroke-width="2" d="M946.12,-575.7C941.01,-567.56 934.8,-557.69 929.16,-548.7"/>
<polygon fill="grey" stroke="grey" stroke-width="2" points="932.04,-546.71 923.75,-540.1 926.11,-550.43 932.04,-546.71"/>
</g>
<!-- 34 -->
<g id="node35" class="node">
<title>34</title>
<path fill="none" stroke="#d85656" stroke-width="2" stroke-dasharray="5,2" d="M980.5,-684C980.5,-684 845.5,-684 845.5,-684 839.5,-684 833.5,-678 833.5,-672 833.5,-672 833.5,-660 833.5,-660 833.5,-654 839.5,-648 845.5,-648 845.5,-648 980.5,-648 980.5,-648 986.5,-648 992.5,-654 992.5,-660 992.5,-660 992.5,-672 992.5,-672 992.5,-678 986.5,-684 980.5,-684"/>
<text text-anchor="middle" x="913" y="-663.5" font-family="sans" font-size="10.00">align_reads_mark_duplicates</text>
</g>
<!-- 34&#45;&gt;32 -->
<g id="edge46" class="edge">
<title>34&#45;&gt;32</title>
<path fill="none" stroke="grey" stroke-width="2" d="M902.37,-647.56C896.9,-637.54 890.8,-624.51 888,-612 884.5,-596.39 884.5,-591.61 888,-576 890.01,-567.01 893.73,-557.75 897.7,-549.53"/>
<polygon fill="grey" stroke="grey" stroke-width="2" points="900.91,-550.94 902.37,-540.44 894.68,-547.73 900.91,-550.94"/>
</g>
<!-- 34&#45;&gt;33 -->
<g id="edge47" class="edge">
<title>34&#45;&gt;33</title>
<path fill="none" stroke="grey" stroke-width="2" d="M923.88,-647.7C928.99,-639.56 935.2,-629.69 940.84,-620.7"/>
<polygon fill="grey" stroke="grey" stroke-width="2" points="943.89,-622.43 946.25,-612.1 937.96,-618.71 943.89,-622.43"/>
</g>
<!-- 35 -->
<g id="node36" class="node">
<title>35</title>
<path fill="none" stroke="#56d8a2" stroke-width="2" stroke-dasharray="5,2" d="M977.5,-756C977.5,-756 918.5,-756 918.5,-756 912.5,-756 906.5,-750 906.5,-744 906.5,-744 906.5,-732 906.5,-732 906.5,-726 912.5,-720 918.5,-720 918.5,-720 977.5,-720 977.5,-720 983.5,-720 989.5,-726 989.5,-732 989.5,-732 989.5,-744 989.5,-744 989.5,-750 983.5,-756 977.5,-756"/>
<text text-anchor="middle" x="948" y="-735.5" font-family="sans" font-size="10.00">fastlin_typing</text>
</g>
<!-- 35&#45;&gt;34 -->
<g id="edge48" class="edge">
<title>35&#45;&gt;34</title>
<path fill="none" stroke="grey" stroke-width="2" d="M939.35,-719.7C935.36,-711.73 930.55,-702.1 926.13,-693.26"/>
<polygon fill="grey" stroke="grey" stroke-width="2" points="929.15,-691.48 921.55,-684.1 922.89,-694.61 929.15,-691.48"/>
</g>
<!-- 36 -->
<g id="node37" class="node">
<title>36</title>
<path fill="none" stroke="#56d882" stroke-width="2" stroke-dasharray="5,2" d="M960.5,-828C960.5,-828 865.5,-828 865.5,-828 859.5,-828 853.5,-822 853.5,-816 853.5,-816 853.5,-804 853.5,-804 853.5,-798 859.5,-792 865.5,-792 865.5,-792 960.5,-792 960.5,-792 966.5,-792 972.5,-798 972.5,-804 972.5,-804 972.5,-816 972.5,-816 972.5,-822 966.5,-828 960.5,-828"/>
<text text-anchor="middle" x="913" y="-807.5" font-family="sans" font-size="10.00">kraken_classification</text>
</g>
<!-- 36&#45;&gt;34 -->
<g id="edge49" class="edge">
<title>36&#45;&gt;34</title>
<path fill="none" stroke="grey" stroke-width="2" d="M906.35,-791.63C902.8,-781.42 898.8,-768.17 897,-756 894.66,-740.17 894.66,-735.83 897,-720 898.28,-711.35 900.67,-702.15 903.22,-693.89"/>
<polygon fill="grey" stroke="grey" stroke-width="2" points="906.55,-694.96 906.35,-684.37 899.9,-692.78 906.55,-694.96"/>
</g>
<!-- 36&#45;&gt;35 -->
<g id="edge50" class="edge">
<title>36&#45;&gt;35</title>
<path fill="none" stroke="grey" stroke-width="2" d="M921.65,-791.7C925.64,-783.73 930.45,-774.1 934.87,-765.26"/>
<polygon fill="grey" stroke="grey" stroke-width="2" points="938.11,-766.61 939.45,-756.1 931.85,-763.48 938.11,-766.61"/>
</g>
<!-- 37 -->
<g id="node38" class="node">
<title>37</title>
<path fill="none" stroke="#5673d8" stroke-width="2" stroke-dasharray="5,2" d="M943.5,-900C943.5,-900 882.5,-900 882.5,-900 876.5,-900 870.5,-894 870.5,-888 870.5,-888 870.5,-876 870.5,-876 870.5,-870 876.5,-864 882.5,-864 882.5,-864 943.5,-864 943.5,-864 949.5,-864 955.5,-870 955.5,-876 955.5,-876 955.5,-888 955.5,-888 955.5,-894 949.5,-900 943.5,-900"/>
<text text-anchor="middle" x="913" y="-879.5" font-family="sans" font-size="10.00">trim_adapters</text>
</g>
<!-- 37&#45;&gt;36 -->
<g id="edge51" class="edge">
<title>37&#45;&gt;36</title>
<path fill="none" stroke="grey" stroke-width="2" d="M913,-863.7C913,-855.98 913,-846.71 913,-838.11"/>
<polygon fill="grey" stroke="grey" stroke-width="2" points="916.5,-838.1 913,-828.1 909.5,-838.1 916.5,-838.1"/>
</g>
<!-- 38 -->
<g id="node39" class="node">
<title>38</title>
<path fill="none" stroke="#9fd856" stroke-width="2" stroke-dasharray="5,2" d="M977,-977C977,-977 849,-977 849,-977 843,-977 837,-971 837,-965 837,-965 837,-948 837,-948 837,-942 843,-936 849,-936 849,-936 977,-936 977,-936 983,-936 989,-942 989,-948 989,-948 989,-965 989,-965 989,-971 983,-977 977,-977"/>
<text text-anchor="middle" x="913" y="-965" font-family="sans" font-size="10.00">get_input_FASTQ_files</text>
<text text-anchor="middle" x="913" y="-954" font-family="sans" font-size="10.00">run_ID: ERR2516400</text>
<text text-anchor="middle" x="913" y="-943" font-family="sans" font-size="10.00">sample_ID: SAMEA3392614</text>
</g>
<!-- 38&#45;&gt;37 -->
<g id="edge52" class="edge">
<title>38&#45;&gt;37</title>
<path fill="none" stroke="grey" stroke-width="2" d="M913,-935.69C913,-927.91 913,-918.84 913,-910.45"/>
<polygon fill="grey" stroke="grey" stroke-width="2" points="916.5,-910.32 913,-900.32 909.5,-910.32 916.5,-910.32"/>
</g>
<!-- 39 -->
<g id="node40" class="node">
<title>39</title>
<path fill="none" stroke="#56b1d8" stroke-width="2" d="M479,-108C479,-108 285,-108 285,-108 279,-108 273,-102 273,-96 273,-96 273,-84 273,-84 273,-78 279,-72 285,-72 285,-72 479,-72 479,-72 485,-72 491,-78 491,-84 491,-84 491,-96 491,-96 491,-102 485,-108 479,-108"/>
<text text-anchor="middle" x="382" y="-87.5" font-family="sans" font-size="10.00">get_WHO_catalog_resistance_predictions</text>
</g>
<!-- 39&#45;&gt;0 -->
<g id="edge4" class="edge">
<title>39&#45;&gt;0</title>
<path fill="none" stroke="grey" stroke-width="2" d="M437.73,-71.97C480.08,-59.02 537.16,-41.57 574.02,-30.3"/>
<polygon fill="grey" stroke="grey" stroke-width="2" points="575.31,-33.57 583.85,-27.3 573.27,-26.87 575.31,-33.57"/>
</g>
<!-- 40 -->
<g id="node41" class="node">
<title>40</title>
<path fill="none" stroke="#d8d356" stroke-width="2" d="M451,-180C451,-180 287,-180 287,-180 281,-180 275,-174 275,-168 275,-168 275,-156 275,-156 275,-150 281,-144 287,-144 287,-144 451,-144 451,-144 457,-144 463,-150 463,-156 463,-156 463,-168 463,-168 463,-174 457,-180 451,-180"/>
<text text-anchor="middle" x="369" y="-159.5" font-family="sans" font-size="10.00">create_WHO_catalog_variants_TSV</text>
</g>
<!-- 40&#45;&gt;39 -->
<g id="edge53" class="edge">
<title>40&#45;&gt;39</title>
<path fill="none" stroke="grey" stroke-width="2" d="M372.21,-143.7C373.65,-135.98 375.37,-126.71 376.96,-118.11"/>
<polygon fill="grey" stroke="grey" stroke-width="2" points="380.44,-118.58 378.82,-108.1 373.56,-117.3 380.44,-118.58"/>
</g>
<!-- 41 -->
<g id="node42" class="node">
<title>41</title>
<path fill="none" stroke="#5692d8" stroke-width="2" d="M421,-252C421,-252 305,-252 305,-252 299,-252 293,-246 293,-240 293,-240 293,-228 293,-228 293,-222 299,-216 305,-216 305,-216 421,-216 421,-216 427,-216 433,-222 433,-228 433,-228 433,-240 433,-240 433,-246 427,-252 421,-252"/>
<text text-anchor="middle" x="363" y="-231.5" font-family="sans" font-size="10.00">annotate_variants_snpEff</text>
</g>
<!-- 41&#45;&gt;40 -->
<g id="edge54" class="edge">
<title>41&#45;&gt;40</title>
<path fill="none" stroke="grey" stroke-width="2" d="M364.48,-215.7C365.14,-207.98 365.94,-198.71 366.68,-190.11"/>
<polygon fill="grey" stroke="grey" stroke-width="2" points="370.17,-190.37 367.53,-180.1 363.19,-189.77 370.17,-190.37"/>
</g>
<!-- 42&#45;&gt;41 -->
<g id="edge55" class="edge">
<title>42&#45;&gt;41</title>
<path fill="none" stroke="grey" stroke-width="2" d="M353.97,-287.7C355.29,-279.98 356.88,-270.71 358.35,-262.11"/>
<polygon fill="grey" stroke="grey" stroke-width="2" points="361.83,-262.55 360.07,-252.1 354.93,-261.37 361.83,-262.55"/>
</g>
<!-- 43 -->
<g id="node44" class="node">
<title>43</title>
<path fill="none" stroke="#56b1d8" stroke-width="2" d="M777,-108C777,-108 583,-108 583,-108 577,-108 571,-102 571,-96 571,-96 571,-84 571,-84 571,-78 577,-72 583,-72 583,-72 777,-72 777,-72 783,-72 789,-78 789,-84 789,-84 789,-96 789,-96 789,-102 783,-108 777,-108"/>
<text text-anchor="middle" x="680" y="-87.5" font-family="sans" font-size="10.00">get_WHO_catalog_resistance_predictions</text>
</g>
<!-- 43&#45;&gt;0 -->
<g id="edge5" class="edge">
<title>43&#45;&gt;0</title>
<path fill="none" stroke="grey" stroke-width="2" d="M662.94,-71.7C654.5,-63.14 644.18,-52.66 634.96,-43.3"/>
<polygon fill="grey" stroke="grey" stroke-width="2" points="637.37,-40.77 627.86,-36.1 632.39,-45.68 637.37,-40.77"/>
</g>
<!-- 44 -->
<g id="node45" class="node">
<title>44</title>
<path fill="none" stroke="#d8d356" stroke-width="2" d="M763,-180C763,-180 599,-180 599,-180 593,-180 587,-174 587,-168 587,-168 587,-156 587,-156 587,-150 593,-144 599,-144 599,-144 763,-144 763,-144 769,-144 775,-150 775,-156 775,-156 775,-168 775,-168 775,-174 769,-180 763,-180"/>
<text text-anchor="middle" x="681" y="-159.5" font-family="sans" font-size="10.00">create_WHO_catalog_variants_TSV</text>
</g>
<!-- 44&#45;&gt;43 -->
<g id="edge57" class="edge">
<title>44&#45;&gt;43</title>
<path fill="none" stroke="grey" stroke-width="2" d="M680.75,-143.7C680.64,-135.98 680.51,-126.71 680.39,-118.11"/>
<polygon fill="grey" stroke="grey" stroke-width="2" points="683.89,-118.05 680.24,-108.1 676.89,-118.15 683.89,-118.05"/>
</g>
<!-- 45 -->
<g id="node46" class="node">
<title>45</title>
<path fill="none" stroke="#5692d8" stroke-width="2" d="M741,-252C741,-252 625,-252 625,-252 619,-252 613,-246 613,-240 613,-240 613,-228 613,-228 613,-222 619,-216 625,-216 625,-216 741,-216 741,-216 747,-216 753,-222 753,-228 753,-228 753,-240 753,-240 753,-246 747,-252 741,-252"/>
<text text-anchor="middle" x="683" y="-231.5" font-family="sans" font-size="10.00">annotate_variants_snpEff</text>
</g>
<!-- 45&#45;&gt;44 -->
<g id="edge58" class="edge">
<title>45&#45;&gt;44</title>
<path fill="none" stroke="grey" stroke-width="2" d="M682.51,-215.7C682.29,-207.98 682.02,-198.71 681.77,-190.11"/>
<polygon fill="grey" stroke="grey" stroke-width="2" points="685.27,-190 681.49,-180.1 678.28,-190.2 685.27,-190"/>
</g>
<!-- 46&#45;&gt;45 -->
<g id="edge59" class="edge">
<title>46&#45;&gt;45</title>
<path fill="none" stroke="grey" stroke-width="2" d="M705.58,-287.7C702.21,-279.81 698.13,-270.3 694.38,-261.55"/>
<polygon fill="grey" stroke="grey" stroke-width="2" points="697.49,-259.92 690.33,-252.1 691.05,-262.67 697.49,-259.92"/>
</g>
<!-- 47 -->
<g id="node48" class="node">
<title>47</title>
<path fill="none" stroke="#56b1d8" stroke-width="2" d="M1083,-108C1083,-108 889,-108 889,-108 883,-108 877,-102 877,-96 877,-96 877,-84 877,-84 877,-78 883,-72 889,-72 889,-72 1083,-72 1083,-72 1089,-72 1095,-78 1095,-84 1095,-84 1095,-96 1095,-96 1095,-102 1089,-108 1083,-108"/>
<text text-anchor="middle" x="986" y="-87.5" font-family="sans" font-size="10.00">get_WHO_catalog_resistance_predictions</text>
</g>
<!-- 47&#45;&gt;0 -->
<g id="edge6" class="edge">
<title>47&#45;&gt;0</title>
<path fill="none" stroke="grey" stroke-width="2" d="M894.74,-71.97C815.56,-57.18 704.94,-36.54 648.04,-25.92"/>
<polygon fill="grey" stroke="grey" stroke-width="2" points="648.54,-22.45 638.07,-24.05 647.25,-29.33 648.54,-22.45"/>
</g>
<!-- 48 -->
<g id="node49" class="node">
<title>48</title>
<path fill="none" stroke="#d8d356" stroke-width="2" d="M1080,-180C1080,-180 916,-180 916,-180 910,-180 904,-174 904,-168 904,-168 904,-156 904,-156 904,-150 910,-144 916,-144 916,-144 1080,-144 1080,-144 1086,-144 1092,-150 1092,-156 1092,-156 1092,-168 1092,-168 1092,-174 1086,-180 1080,-180"/>
<text text-anchor="middle" x="998" y="-159.5" font-family="sans" font-size="10.00">create_WHO_catalog_variants_TSV</text>
</g>
<!-- 48&#45;&gt;47 -->
<g id="edge61" class="edge">
<title>48&#45;&gt;47</title>
<path fill="none" stroke="grey" stroke-width="2" d="M995.03,-143.7C993.71,-135.98 992.12,-126.71 990.65,-118.11"/>
<polygon fill="grey" stroke="grey" stroke-width="2" points="994.07,-117.37 988.93,-108.1 987.17,-118.55 994.07,-117.37"/>
</g>
<!-- 49 -->
<g id="node50" class="node">
<title>49</title>
<path fill="none" stroke="#5692d8" stroke-width="2" d="M1120,-252C1120,-252 1004,-252 1004,-252 998,-252 992,-246 992,-240 992,-240 992,-228 992,-228 992,-222 998,-216 1004,-216 1004,-216 1120,-216 1120,-216 1126,-216 1132,-222 1132,-228 1132,-228 1132,-240 1132,-240 1132,-246 1126,-252 1120,-252"/>
<text text-anchor="middle" x="1062" y="-231.5" font-family="sans" font-size="10.00">annotate_variants_snpEff</text>
</g>
<!-- 49&#45;&gt;48 -->
<g id="edge62" class="edge">
<title>49&#45;&gt;48</title>
<path fill="none" stroke="grey" stroke-width="2" d="M1046.18,-215.7C1038.43,-207.22 1028.96,-196.86 1020.48,-187.58"/>
<polygon fill="grey" stroke="grey" stroke-width="2" points="1022.97,-185.12 1013.64,-180.1 1017.8,-189.85 1022.97,-185.12"/>
</g>
<!-- 50&#45;&gt;49 -->
<g id="edge63" class="edge">
<title>50&#45;&gt;49</title>
<path fill="none" stroke="grey" stroke-width="2" d="M1071.79,-287.7C1070.35,-279.98 1068.63,-270.71 1067.04,-262.11"/>
<polygon fill="grey" stroke="grey" stroke-width="2" points="1070.44,-261.3 1065.18,-252.1 1063.56,-262.58 1070.44,-261.3"/>
</g>
</g>
</svg>
