<?xml version="1.0" encoding="UTF-8" standalone="no"?>
<!DOCTYPE svg PUBLIC "-//W3C//DTD SVG 1.1//EN"
 "http://www.w3.org/Graphics/SVG/1.1/DTD/svg11.dtd">
<!-- Generated by graphviz version 2.50.0 (0)
 -->
<!-- Title: snakemake_dag Pages: 1 -->
<svg width="363pt" height="985pt"
 viewBox="0.00 0.00 362.50 985.00" xmlns="http://www.w3.org/2000/svg" xmlns:xlink="http://www.w3.org/1999/xlink">
<g id="graph0" class="graph" transform="scale(1 1) rotate(0) translate(4 981)">
<title>snakemake_dag</title>
<polygon fill="white" stroke="transparent" points="-4,4 -4,-981 358.5,-981 358.5,4 -4,4"/>
<!-- 0 -->
<g id="node1" class="node">
<title>0</title>
<path fill="none" stroke="#56d8c1" stroke-width="2" stroke-dasharray="5,2" d="M201,-36C201,-36 171,-36 171,-36 165,-36 159,-30 159,-24 159,-24 159,-12 159,-12 159,-6 165,0 171,0 171,0 201,0 201,0 207,0 213,-6 213,-12 213,-12 213,-24 213,-24 213,-30 207,-36 201,-36"/>
<text text-anchor="middle" x="186" y="-15.5" font-family="sans" font-size="10.00">all</text>
</g>
<!-- 1 -->
<g id="node2" class="node">
<title>1</title>
<path fill="none" stroke="#9fd856" stroke-width="2" stroke-dasharray="5,2" d="M283,-108C283,-108 89,-108 89,-108 83,-108 77,-102 77,-96 77,-96 77,-84 77,-84 77,-78 83,-72 89,-72 89,-72 283,-72 283,-72 289,-72 295,-78 295,-84 295,-84 295,-96 295,-96 295,-102 289,-108 283,-108"/>
<text text-anchor="middle" x="186" y="-87.5" font-family="sans" font-size="10.00">get_WHO_catalog_resistance_predictions</text>
</g>
<!-- 1&#45;&gt;0 -->
<g id="edge1" class="edge">
<title>1&#45;&gt;0</title>
<path fill="none" stroke="grey" stroke-width="2" d="M186,-71.7C186,-63.98 186,-54.71 186,-46.11"/>
<polygon fill="grey" stroke="grey" stroke-width="2" points="189.5,-46.1 186,-36.1 182.5,-46.1 189.5,-46.1"/>
</g>
<!-- 2 -->
<g id="node3" class="node">
<title>2</title>
<path fill="none" stroke="#68d856" stroke-width="2" stroke-dasharray="5,2" d="M268,-180C268,-180 104,-180 104,-180 98,-180 92,-174 92,-168 92,-168 92,-156 92,-156 92,-150 98,-144 104,-144 104,-144 268,-144 268,-144 274,-144 280,-150 280,-156 280,-156 280,-168 280,-168 280,-174 274,-180 268,-180"/>
<text text-anchor="middle" x="186" y="-159.5" font-family="sans" font-size="10.00">create_WHO_catalog_variants_TSV</text>
</g>
<!-- 2&#45;&gt;1 -->
<g id="edge2" class="edge">
<title>2&#45;&gt;1</title>
<path fill="none" stroke="grey" stroke-width="2" d="M186,-143.7C186,-135.98 186,-126.71 186,-118.11"/>
<polygon fill="grey" stroke="grey" stroke-width="2" points="189.5,-118.1 186,-108.1 182.5,-118.1 189.5,-118.1"/>
</g>
<!-- 3 -->
<g id="node4" class="node">
<title>3</title>
<path fill="none" stroke="#56d0d8" stroke-width="2" stroke-dasharray="5,2" d="M244,-252C244,-252 128,-252 128,-252 122,-252 116,-246 116,-240 116,-240 116,-228 116,-228 116,-222 122,-216 128,-216 128,-216 244,-216 244,-216 250,-216 256,-222 256,-228 256,-228 256,-240 256,-240 256,-246 250,-252 244,-252"/>
<text text-anchor="middle" x="186" y="-231.5" font-family="sans" font-size="10.00">annotate_variants_snpEff</text>
</g>
<!-- 3&#45;&gt;2 -->
<g id="edge3" class="edge">
<title>3&#45;&gt;2</title>
<path fill="none" stroke="grey" stroke-width="2" d="M186,-215.7C186,-207.98 186,-198.71 186,-190.11"/>
<polygon fill="grey" stroke="grey" stroke-width="2" points="189.5,-190.1 186,-180.1 182.5,-190.1 189.5,-190.1"/>
</g>
<!-- 4 -->
<g id="node5" class="node">
<title>4</title>
<path fill="none" stroke="#5692d8" stroke-width="2" stroke-dasharray="5,2" d="M243,-324C243,-324 129,-324 129,-324 123,-324 117,-318 117,-312 117,-312 117,-300 117,-300 117,-294 123,-288 129,-288 129,-288 243,-288 243,-288 249,-288 255,-294 255,-300 255,-300 255,-312 255,-312 255,-318 249,-324 243,-324"/>
<text text-anchor="middle" x="186" y="-303.5" font-family="sans" font-size="10.00">combine_codon_variants</text>
</g>
<!-- 4&#45;&gt;3 -->
<g id="edge4" class="edge">
<title>4&#45;&gt;3</title>
<path fill="none" stroke="grey" stroke-width="2" d="M186,-287.7C186,-279.98 186,-270.71 186,-262.11"/>
<polygon fill="grey" stroke="grey" stroke-width="2" points="189.5,-262.1 186,-252.1 182.5,-262.1 189.5,-262.1"/>
</g>
<!-- 5 -->
<g id="node6" class="node">
<title>5</title>
<path fill="none" stroke="#d8b456" stroke-width="2" stroke-dasharray="5,2" d="M213.5,-396C213.5,-396 158.5,-396 158.5,-396 152.5,-396 146.5,-390 146.5,-384 146.5,-384 146.5,-372 146.5,-372 146.5,-366 152.5,-360 158.5,-360 158.5,-360 213.5,-360 213.5,-360 219.5,-360 225.5,-366 225.5,-372 225.5,-372 225.5,-384 225.5,-384 225.5,-390 219.5,-396 213.5,-396"/>
<text text-anchor="middle" x="186" y="-375.5" font-family="sans" font-size="10.00">call_variants</text>
</g>
<!-- 5&#45;&gt;4 -->
<g id="edge5" class="edge">
<title>5&#45;&gt;4</title>
<path fill="none" stroke="grey" stroke-width="2" d="M186,-359.7C186,-351.98 186,-342.71 186,-334.11"/>
<polygon fill="grey" stroke="grey" stroke-width="2" points="189.5,-334.1 186,-324.1 182.5,-334.1 189.5,-334.1"/>
</g>
<!-- 6 -->
<g id="node7" class="node">
<title>6</title>
<path fill="none" stroke="#d87556" stroke-width="2" stroke-dasharray="5,2" d="M214.5,-468C214.5,-468 157.5,-468 157.5,-468 151.5,-468 145.5,-462 145.5,-456 145.5,-456 145.5,-444 145.5,-444 145.5,-438 151.5,-432 157.5,-432 157.5,-432 214.5,-432 214.5,-432 220.5,-432 226.5,-438 226.5,-444 226.5,-444 226.5,-456 226.5,-456 226.5,-462 220.5,-468 214.5,-468"/>
<text text-anchor="middle" x="186" y="-447.5" font-family="sans" font-size="10.00">merge_BAMs</text>
</g>
<!-- 6&#45;&gt;5 -->
<g id="edge6" class="edge">
<title>6&#45;&gt;5</title>
<path fill="none" stroke="grey" stroke-width="2" d="M186,-431.7C186,-423.98 186,-414.71 186,-406.11"/>
<polygon fill="grey" stroke="grey" stroke-width="2" points="189.5,-406.1 186,-396.1 182.5,-406.1 189.5,-406.1"/>
</g>
<!-- 7 -->
<g id="node8" class="node">
<title>7</title>
<path fill="none" stroke="#d85656" stroke-width="2" stroke-dasharray="5,2" d="M266,-540C266,-540 106,-540 106,-540 100,-540 94,-534 94,-528 94,-528 94,-516 94,-516 94,-510 100,-504 106,-504 106,-504 266,-504 266,-504 272,-504 278,-510 278,-516 278,-516 278,-528 278,-528 278,-534 272,-540 266,-540"/>
<text text-anchor="middle" x="186" y="-519.5" font-family="sans" font-size="10.00">get_BAMs_passing_QC_thresholds</text>
</g>
<!-- 7&#45;&gt;6 -->
<g id="edge7" class="edge">
<title>7&#45;&gt;6</title>
<path fill="none" stroke="grey" stroke-width="2" d="M186,-503.7C186,-495.98 186,-486.71 186,-478.11"/>
<polygon fill="grey" stroke="grey" stroke-width="2" points="189.5,-478.1 186,-468.1 182.5,-478.1 189.5,-478.1"/>
</g>
<!-- 8 -->
<g id="node9" class="node">
<title>8</title>
<path fill="none" stroke="#56b1d8" stroke-width="2" stroke-dasharray="5,2" d="M233.5,-612C233.5,-612 138.5,-612 138.5,-612 132.5,-612 126.5,-606 126.5,-600 126.5,-600 126.5,-588 126.5,-588 126.5,-582 132.5,-576 138.5,-576 138.5,-576 233.5,-576 233.5,-576 239.5,-576 245.5,-582 245.5,-588 245.5,-588 245.5,-600 245.5,-600 245.5,-606 239.5,-612 233.5,-612"/>
<text text-anchor="middle" x="186" y="-591.5" font-family="sans" font-size="10.00">get_BAM_file_depths</text>
</g>
<!-- 8&#45;&gt;7 -->
<g id="edge8" class="edge">
<title>8&#45;&gt;7</title>
<path fill="none" stroke="grey" stroke-width="2" d="M186,-575.7C186,-567.98 186,-558.71 186,-550.11"/>
<polygon fill="grey" stroke="grey" stroke-width="2" points="189.5,-550.1 186,-540.1 182.5,-550.1 189.5,-550.1"/>
</g>
<!-- 9 -->
<g id="node10" class="node">
<title>9</title>
<path fill="none" stroke="#d89556" stroke-width="2" stroke-dasharray="5,2" d="M165.5,-684C165.5,-684 30.5,-684 30.5,-684 24.5,-684 18.5,-678 18.5,-672 18.5,-672 18.5,-660 18.5,-660 18.5,-654 24.5,-648 30.5,-648 30.5,-648 165.5,-648 165.5,-648 171.5,-648 177.5,-654 177.5,-660 177.5,-660 177.5,-672 177.5,-672 177.5,-678 171.5,-684 165.5,-684"/>
<text text-anchor="middle" x="98" y="-663.5" font-family="sans" font-size="10.00">align_reads_mark_duplicates</text>
</g>
<!-- 9&#45;&gt;8 -->
<g id="edge9" class="edge">
<title>9&#45;&gt;8</title>
<path fill="none" stroke="grey" stroke-width="2" d="M119.75,-647.7C130.84,-638.88 144.47,-628.03 156.49,-618.47"/>
<polygon fill="grey" stroke="grey" stroke-width="2" points="158.85,-621.07 164.5,-612.1 154.49,-615.59 158.85,-621.07"/>
</g>
<!-- 10 -->
<g id="node11" class="node">
<title>10</title>
<path fill="none" stroke="#88d856" stroke-width="2" stroke-dasharray="5,2" d="M166.5,-756C166.5,-756 107.5,-756 107.5,-756 101.5,-756 95.5,-750 95.5,-744 95.5,-744 95.5,-732 95.5,-732 95.5,-726 101.5,-720 107.5,-720 107.5,-720 166.5,-720 166.5,-720 172.5,-720 178.5,-726 178.5,-732 178.5,-732 178.5,-744 178.5,-744 178.5,-750 172.5,-756 166.5,-756"/>
<text text-anchor="middle" x="137" y="-735.5" font-family="sans" font-size="10.00">fastlin_typing</text>
</g>
<!-- 10&#45;&gt;9 -->
<g id="edge11" class="edge">
<title>10&#45;&gt;9</title>
<path fill="none" stroke="grey" stroke-width="2" d="M127.36,-719.7C122.87,-711.64 117.44,-701.89 112.48,-692.98"/>
<polygon fill="grey" stroke="grey" stroke-width="2" points="115.45,-691.14 107.53,-684.1 109.34,-694.54 115.45,-691.14"/>
</g>
<!-- 11 -->
<g id="node12" class="node">
<title>11</title>
<path fill="none" stroke="#bed856" stroke-width="2" stroke-dasharray="5,2" d="M123.5,-828C123.5,-828 28.5,-828 28.5,-828 22.5,-828 16.5,-822 16.5,-816 16.5,-816 16.5,-804 16.5,-804 16.5,-798 22.5,-792 28.5,-792 28.5,-792 123.5,-792 123.5,-792 129.5,-792 135.5,-798 135.5,-804 135.5,-804 135.5,-816 135.5,-816 135.5,-822 129.5,-828 123.5,-828"/>
<text text-anchor="middle" x="76" y="-807.5" font-family="sans" font-size="10.00">kraken_classification</text>
</g>
<!-- 11&#45;&gt;9 -->
<g id="edge12" class="edge">
<title>11&#45;&gt;9</title>
<path fill="none" stroke="grey" stroke-width="2" d="M77.36,-791.86C78.92,-773.88 81.81,-744.84 86,-720 87.44,-711.5 89.38,-702.31 91.28,-694.01"/>
<polygon fill="grey" stroke="grey" stroke-width="2" points="94.73,-694.63 93.62,-684.09 87.92,-693.02 94.73,-694.63"/>
</g>
<!-- 11&#45;&gt;10 -->
<g id="edge13" class="edge">
<title>11&#45;&gt;10</title>
<path fill="none" stroke="grey" stroke-width="2" d="M91.08,-791.7C98.39,-783.3 107.31,-773.07 115.34,-763.86"/>
<polygon fill="grey" stroke="grey" stroke-width="2" points="118.16,-765.94 122.09,-756.1 112.89,-761.34 118.16,-765.94"/>
</g>
<!-- 12 -->
<g id="node13" class="node">
<title>12</title>
<path fill="none" stroke="#56d882" stroke-width="2" stroke-dasharray="5,2" d="M106.5,-900C106.5,-900 45.5,-900 45.5,-900 39.5,-900 33.5,-894 33.5,-888 33.5,-888 33.5,-876 33.5,-876 33.5,-870 39.5,-864 45.5,-864 45.5,-864 106.5,-864 106.5,-864 112.5,-864 118.5,-870 118.5,-876 118.5,-876 118.5,-888 118.5,-888 118.5,-894 112.5,-900 106.5,-900"/>
<text text-anchor="middle" x="76" y="-879.5" font-family="sans" font-size="10.00">trim_adapters</text>
</g>
<!-- 12&#45;&gt;11 -->
<g id="edge14" class="edge">
<title>12&#45;&gt;11</title>
<path fill="none" stroke="grey" stroke-width="2" d="M76,-863.7C76,-855.98 76,-846.71 76,-838.11"/>
<polygon fill="grey" stroke="grey" stroke-width="2" points="79.5,-838.1 76,-828.1 72.5,-838.1 79.5,-838.1"/>
</g>
<!-- 13 -->
<g id="node14" class="node">
<title>13</title>
<path fill="none" stroke="#56d863" stroke-width="2" stroke-dasharray="5,2" d="M140,-977C140,-977 12,-977 12,-977 6,-977 0,-971 0,-965 0,-965 0,-948 0,-948 0,-942 6,-936 12,-936 12,-936 140,-936 140,-936 146,-936 152,-942 152,-948 152,-948 152,-965 152,-965 152,-971 146,-977 140,-977"/>
<text text-anchor="middle" x="76" y="-965" font-family="sans" font-size="10.00">get_input_FASTQ_files</text>
<text text-anchor="middle" x="76" y="-954" font-family="sans" font-size="10.00">run_ID: ERR8665793</text>
<text text-anchor="middle" x="76" y="-943" font-family="sans" font-size="10.00">sample_ID: SAMEA8741574</text>
</g>
<!-- 13&#45;&gt;12 -->
<g id="edge15" class="edge">
<title>13&#45;&gt;12</title>
<path fill="none" stroke="grey" stroke-width="2" d="M76,-935.69C76,-927.91 76,-918.84 76,-910.45"/>
<polygon fill="grey" stroke="grey" stroke-width="2" points="79.5,-910.32 76,-900.32 72.5,-910.32 79.5,-910.32"/>
</g>
<!-- 14 -->
<g id="node15" class="node">
<title>14</title>
<path fill="none" stroke="#d89556" stroke-width="2" stroke-dasharray="5,2" d="M342.5,-684C342.5,-684 207.5,-684 207.5,-684 201.5,-684 195.5,-678 195.5,-672 195.5,-672 195.5,-660 195.5,-660 195.5,-654 201.5,-648 207.5,-648 207.5,-648 342.5,-648 342.5,-648 348.5,-648 354.5,-654 354.5,-660 354.5,-660 354.5,-672 354.5,-672 354.5,-678 348.5,-684 342.5,-684"/>
<text text-anchor="middle" x="275" y="-663.5" font-family="sans" font-size="10.00">align_reads_mark_duplicates</text>
</g>
<!-- 14&#45;&gt;8 -->
<g id="edge10" class="edge">
<title>14&#45;&gt;8</title>
<path fill="none" stroke="grey" stroke-width="2" d="M253,-647.7C241.79,-638.88 228,-628.03 215.85,-618.47"/>
<polygon fill="grey" stroke="grey" stroke-width="2" points="217.77,-615.54 207.75,-612.1 213.44,-621.04 217.77,-615.54"/>
</g>
<!-- 15 -->
<g id="node16" class="node">
<title>15</title>
<path fill="none" stroke="#88d856" stroke-width="2" stroke-dasharray="5,2" d="M335.5,-756C335.5,-756 276.5,-756 276.5,-756 270.5,-756 264.5,-750 264.5,-744 264.5,-744 264.5,-732 264.5,-732 264.5,-726 270.5,-720 276.5,-720 276.5,-720 335.5,-720 335.5,-720 341.5,-720 347.5,-726 347.5,-732 347.5,-732 347.5,-744 347.5,-744 347.5,-750 341.5,-756 335.5,-756"/>
<text text-anchor="middle" x="306" y="-735.5" font-family="sans" font-size="10.00">fastlin_typing</text>
</g>
<!-- 15&#45;&gt;14 -->
<g id="edge16" class="edge">
<title>15&#45;&gt;14</title>
<path fill="none" stroke="grey" stroke-width="2" d="M298.34,-719.7C294.81,-711.73 290.54,-702.1 286.63,-693.26"/>
<polygon fill="grey" stroke="grey" stroke-width="2" points="289.82,-691.83 282.57,-684.1 283.42,-694.67 289.82,-691.83"/>
</g>
<!-- 16 -->
<g id="node17" class="node">
<title>16</title>
<path fill="none" stroke="#bed856" stroke-width="2" stroke-dasharray="5,2" d="M312.5,-828C312.5,-828 217.5,-828 217.5,-828 211.5,-828 205.5,-822 205.5,-816 205.5,-816 205.5,-804 205.5,-804 205.5,-798 211.5,-792 217.5,-792 217.5,-792 312.5,-792 312.5,-792 318.5,-792 324.5,-798 324.5,-804 324.5,-804 324.5,-816 324.5,-816 324.5,-822 318.5,-828 312.5,-828"/>
<text text-anchor="middle" x="265" y="-807.5" font-family="sans" font-size="10.00">kraken_classification</text>
</g>
<!-- 16&#45;&gt;14 -->
<g id="edge17" class="edge">
<title>16&#45;&gt;14</title>
<path fill="none" stroke="grey" stroke-width="2" d="M260.12,-791.84C255.69,-773.84 250.48,-744.78 255,-720 256.61,-711.2 259.6,-701.95 262.79,-693.7"/>
<polygon fill="grey" stroke="grey" stroke-width="2" points="266.12,-694.79 266.69,-684.21 259.65,-692.12 266.12,-694.79"/>
</g>
<!-- 16&#45;&gt;15 -->
<g id="edge18" class="edge">
<title>16&#45;&gt;15</title>
<path fill="none" stroke="grey" stroke-width="2" d="M275.13,-791.7C279.85,-783.64 285.56,-773.89 290.78,-764.98"/>
<polygon fill="grey" stroke="grey" stroke-width="2" points="293.95,-766.5 295.98,-756.1 287.91,-762.96 293.95,-766.5"/>
</g>
<!-- 17 -->
<g id="node18" class="node">
<title>17</title>
<path fill="none" stroke="#56d882" stroke-width="2" stroke-dasharray="5,2" d="M295.5,-900C295.5,-900 234.5,-900 234.5,-900 228.5,-900 222.5,-894 222.5,-888 222.5,-888 222.5,-876 222.5,-876 222.5,-870 228.5,-864 234.5,-864 234.5,-864 295.5,-864 295.5,-864 301.5,-864 307.5,-870 307.5,-876 307.5,-876 307.5,-888 307.5,-888 307.5,-894 301.5,-900 295.5,-900"/>
<text text-anchor="middle" x="265" y="-879.5" font-family="sans" font-size="10.00">trim_adapters</text>
</g>
<!-- 17&#45;&gt;16 -->
<g id="edge19" class="edge">
<title>17&#45;&gt;16</title>
<path fill="none" stroke="grey" stroke-width="2" d="M265,-863.7C265,-855.98 265,-846.71 265,-838.11"/>
<polygon fill="grey" stroke="grey" stroke-width="2" points="268.5,-838.1 265,-828.1 261.5,-838.1 268.5,-838.1"/>
</g>
<!-- 18 -->
<g id="node19" class="node">
<title>18</title>
<path fill="none" stroke="#56d863" stroke-width="2" stroke-dasharray="5,2" d="M329,-977C329,-977 201,-977 201,-977 195,-977 189,-971 189,-965 189,-965 189,-948 189,-948 189,-942 195,-936 201,-936 201,-936 329,-936 329,-936 335,-936 341,-942 341,-948 341,-948 341,-965 341,-965 341,-971 335,-977 329,-977"/>
<text text-anchor="middle" x="265" y="-965" font-family="sans" font-size="10.00">get_input_FASTQ_files</text>
<text text-anchor="middle" x="265" y="-954" font-family="sans" font-size="10.00">run_ID: ERR8665794</text>
<text text-anchor="middle" x="265" y="-943" font-family="sans" font-size="10.00">sample_ID: SAMEA8741574</text>
</g>
<!-- 18&#45;&gt;17 -->
<g id="edge20" class="edge">
<title>18&#45;&gt;17</title>
<path fill="none" stroke="grey" stroke-width="2" d="M265,-935.69C265,-927.91 265,-918.84 265,-910.45"/>
<polygon fill="grey" stroke="grey" stroke-width="2" points="268.5,-910.32 265,-900.32 261.5,-910.32 268.5,-910.32"/>
</g>
</g>
</svg>
